<?xml version="1.0" encoding="UTF-8"?>
<svg xmlns="http://www.w3.org/2000/svg" viewBox="0 0 360 720" role="img" aria-label="TaskTower full split tower" >
<defs>
  <linearGradient id="tower-purple" x1="0" y1="0" x2="1" y2="1"><stop stop-color="#9B7BFF"/><stop offset="1" stop-color="#6545DA"/></linearGradient>
  <linearGradient id="tower-pink" x1="0" y1="0" x2="1" y2="1"><stop stop-color="#FF8EA7"/><stop offset="1" stop-color="#E64E75"/></linearGradient>
  <linearGradient id="tower-gold" x1="0" y1="0" x2="0" y2="1"><stop stop-color="#FFD76A"/><stop offset="1" stop-color="#F0A52D"/></linearGradient>
  <filter id="tower-shadow" x="-30%" y="-30%" width="160%" height="180%"><feDropShadow dx="0" dy="8" stdDeviation="8" flood-color="#3F2D56" flood-opacity=".18"/></filter>
</defs><g filter="url(#tower-shadow)"><path d="M32 650V86q0-20 20-20h128v584Z" fill="url(#tower-purple)"/><path d="M180 650V66h128q20 0 20 20v564Z" fill="url(#tower-pink)"/><path d="M174 66h12v584h-12Z" fill="#FFF" opacity=".88"/><path d="M28 590h304" stroke="#FFF" stroke-opacity=".28" stroke-width="4"/><rect x="72" y="543" width="42" height="45" rx="9" fill="#FFE6A8" stroke="#3B316C" stroke-width="5"/><rect x="246" y="543" width="42" height="45" rx="9" fill="#FFE6A8" stroke="#71334D" stroke-width="5"/><path d="M28 520h304" stroke="#FFF" stroke-opacity=".28" stroke-width="4"/><rect x="72" y="473" width="42" height="45" rx="9" fill="#FFE6A8" stroke="#3B316C" stroke-width="5"/><rect x="246" y="473" width="42" height="45" rx="9" fill="#FFE6A8" stroke="#71334D" stroke-width="5"/><path d="M28 450h304" stroke="#FFF" stroke-opacity=".28" stroke-width="4"/><rect x="72" y="403" width="42" height="45" rx="9" fill="#FFE6A8" stroke="#3B316C" stroke-width="5"/><rect x="246" y="403" width="42" height="45" rx="9" fill="#FFE6A8" stroke="#71334D" stroke-width="5"/><path d="M28 380h304" stroke="#FFF" stroke-opacity=".28" stroke-width="4"/><rect x="72" y="333" width="42" height="45" rx="9" fill="#FFE6A8" stroke="#3B316C" stroke-width="5"/><rect x="246" y="333" width="42" height="45" rx="9" fill="#FFE6A8" stroke="#71334D" stroke-width="5"/><path d="M28 310h304" stroke="#FFF" stroke-opacity=".28" stroke-width="4"/><rect x="72" y="263" width="42" height="45" rx="9" fill="#FFE6A8" stroke="#3B316C" stroke-width="5"/><rect x="246" y="263" width="42" height="45" rx="9" fill="#FFE6A8" stroke="#71334D" stroke-width="5"/><path d="M28 240h304" stroke="#FFF" stroke-opacity=".28" stroke-width="4"/><rect x="72" y="193" width="42" height="45" rx="9" fill="#FFE6A8" stroke="#3B316C" stroke-width="5"/><rect x="246" y="193" width="42" height="45" rx="9" fill="#FFE6A8" stroke="#71334D" stroke-width="5"/><path d="M28 170h304" stroke="#FFF" stroke-opacity=".28" stroke-width="4"/><rect x="72" y="123" width="42" height="45" rx="9" fill="#FFE6A8" stroke="#3B316C" stroke-width="5"/><rect x="246" y="123" width="42" height="45" rx="9" fill="#FFE6A8" stroke="#71334D" stroke-width="5"/><path d="M28 100h304" stroke="#FFF" stroke-opacity=".28" stroke-width="4"/><rect x="72" y="53" width="42" height="45" rx="9" fill="#FFE6A8" stroke="#3B316C" stroke-width="5"/><rect x="246" y="53" width="42" height="45" rx="9" fill="#FFE6A8" stroke="#71334D" stroke-width="5"/><path d="M16 650h328v42H16Z" rx="18" fill="#41306D"/><g transform="translate(146 10) scale(1.2)" fill="url(#tower-gold)" stroke="#D58A1D" stroke-width="2" stroke-linejoin="round">
  <path d="M4 28 0 6l17 12L28 0l11 18L56 6l-4 22Z"/><rect x="4" y="27" width="48" height="10" rx="4"/>
  <circle cx="0" cy="6" r="4"/><circle cx="28" cy="1" r="4"/><circle cx="56" cy="6" r="4"/>
</g></g>
</svg>
