<?xml version="1.0" encoding="UTF-8"?>
<svg xmlns="http://www.w3.org/2000/svg" viewBox="0 0 24 24" role="img" aria-label="TaskTower general chore icon" width="64" height="64">
<rect x=".75" y=".75" width="22.5" height="22.5" rx="6.5" fill="#F0EBFF"/><g color="#5A38D6" stroke-linecap="round" stroke-linejoin="round"><path d="M17 21a1 1 0 0 0 1-1v-5.35c0-.457.316-.844.727-1.041a4 4 0 0 0-2.134-7.589 5 5 0 0 0-9.186 0 4 4 0 0 0-2.134 7.588c.411.198.727.585.727 1.041V20a1 1 0 0 0 1 1Z"></path><path d="M6 17h12"></path></g>
</svg>
